<svg width="3644" height="694" viewBox="0 0 3644 694" fill="none" xmlns="http://www.w3.org/2000/svg">
<path d="M104.301 385.419C94.4065 394.481 81.7541 399.013 66.3433 399.013C47.2747 399.013 32.2837 392.891 21.3702 380.648C10.4567 368.345 5 351.48 5 330.055C5 306.889 11.2063 289.034 23.6189 276.491C34.4124 265.568 48.1442 260.107 64.8142 260.107C87.1208 260.107 103.431 267.429 113.745 282.073C119.442 290.295 122.5 298.547 122.919 306.829H95.216C93.4171 300.467 91.1085 295.666 88.2901 292.425C83.2532 286.664 75.7876 283.783 65.8935 283.783C55.8196 283.783 47.8743 287.864 42.0578 296.026C36.2413 304.128 33.333 315.621 33.333 330.505C33.333 345.389 36.3912 356.552 42.5075 363.994C48.6839 371.375 56.5092 375.066 65.9835 375.066C75.6977 375.066 83.1032 371.886 88.2002 365.524C91.0185 362.103 93.3571 356.972 95.216 350.13H122.65C120.251 364.594 114.135 376.357 104.301 385.419Z" fill="white"/>
<path d="M194.657 343.288H166.054V395.322H138.98V262.628H204.011C213.306 262.808 220.441 263.948 225.418 266.049C230.455 268.149 234.713 271.24 238.191 275.321C241.069 278.682 243.348 282.403 245.027 286.484C246.706 290.565 247.545 295.216 247.545 300.437C247.545 306.739 245.956 312.951 242.778 319.072C239.6 325.134 234.353 329.425 227.037 331.945C233.154 334.406 237.471 337.917 239.99 342.478C242.568 346.979 243.857 353.881 243.857 363.183V372.096C243.857 378.157 244.097 382.268 244.577 384.429C245.297 387.85 246.976 390.37 249.614 391.991V395.322H219.122C218.283 392.381 217.683 390.01 217.323 388.21C216.604 384.489 216.214 380.678 216.154 376.777L215.974 364.444C215.854 355.982 214.295 350.34 211.297 347.519C208.359 344.699 202.812 343.288 194.657 343.288ZM211.477 319.162C216.994 316.641 219.752 311.66 219.752 304.218C219.752 296.176 217.083 290.775 211.747 288.014C208.748 286.454 204.251 285.674 198.255 285.674H166.054V321.323H197.445C203.681 321.323 208.359 320.602 211.477 319.162Z" fill="white"/>
<path d="M358.229 337.347H293.828V371.466H367.224V395.322H266.754V262.628H363.986V286.124H293.828V314.301H358.229V337.347Z" fill="white"/>
<path d="M460.908 368.045H412.068L402.893 395.322H373.93L421.242 262.628H452.543L499.495 395.322H469.453L460.908 368.045ZM453.173 345.179L436.623 292.965L419.533 345.179H453.173Z" fill="white"/>
<path d="M593.539 262.628V286.124H553.873V395.322H525.99V286.124H486.144V262.628H593.539Z" fill="white"/>
<path d="M602.135 262.628H629.658V395.322H602.135V262.628Z" fill="white"/>
<path d="M757.252 395.322H729.549L675.401 301.067V395.322H649.587V262.628H678.639L731.438 355.261V262.628H757.252V395.322Z" fill="white"/>
<path d="M858.942 392.081C851.626 396.582 842.631 398.832 831.958 398.832C814.388 398.832 799.997 392.741 788.784 380.558C777.091 368.315 771.244 351.57 771.244 330.325C771.244 308.839 777.151 291.615 788.964 278.652C800.776 265.688 816.397 259.207 835.825 259.207C852.675 259.207 866.197 263.498 876.391 272.08C886.645 280.602 892.522 291.255 894.021 304.038H866.767C864.668 294.976 859.541 288.644 851.386 285.043C846.829 283.063 841.762 282.073 836.185 282.073C825.512 282.073 816.727 286.124 809.831 294.226C802.995 302.268 799.577 314.391 799.577 330.595C799.577 346.919 803.295 358.472 810.731 365.254C818.166 372.036 826.621 375.427 836.095 375.427C845.39 375.427 853.005 372.756 858.942 367.414C864.878 362.013 868.536 354.961 869.915 346.259H839.243V324.113H894.47V395.322H876.121L873.333 378.757C867.996 385.059 863.199 389.5 858.942 392.081Z" fill="white"/>
<path d="M638.96 433.616H572.489V464.134H630.685V487.18H572.489V542.814H544.966V410.301H638.96V433.616Z" fill="white"/>
<path d="M708.855 546.505C689.906 546.505 675.425 541.344 665.411 531.021C651.979 518.358 645.263 500.113 645.263 476.287C645.263 451.981 651.979 433.736 665.411 421.553C675.425 411.231 689.906 406.069 708.855 406.069C727.804 406.069 742.285 411.231 752.299 421.553C765.671 433.736 772.357 451.981 772.357 476.287C772.357 500.113 765.671 518.358 752.299 531.021C742.285 541.344 727.804 546.505 708.855 546.505ZM735.029 510.856C741.446 502.754 744.654 491.231 744.654 476.287C744.654 461.404 741.416 449.911 734.939 441.809C728.523 433.646 719.828 429.565 708.855 429.565C697.882 429.565 689.127 433.616 682.591 441.719C676.055 449.821 672.787 461.344 672.787 476.287C672.787 491.231 676.055 502.754 682.591 510.856C689.127 518.958 697.882 523.009 708.855 523.009C719.828 523.009 728.553 518.958 735.029 510.856Z" fill="white"/>
<path d="M842.522 490.781H813.919V542.814H786.846V410.12H851.877C861.171 410.3 868.307 411.441 873.284 413.541C878.321 415.642 882.578 418.733 886.056 422.814C888.934 426.175 891.213 429.896 892.892 433.977C894.571 438.058 895.411 442.709 895.411 447.93C895.411 454.232 893.821 460.443 890.643 466.565C887.465 472.626 882.218 476.918 874.903 479.438C881.019 481.899 885.337 485.41 887.855 489.971C890.433 494.472 891.723 501.374 891.723 510.676V519.588C891.723 525.65 891.963 529.761 892.442 531.922C893.162 535.343 894.841 537.863 897.479 539.484V542.814H866.988C866.148 539.874 865.548 537.503 865.189 535.703C864.469 531.982 864.079 528.171 864.019 524.27L863.839 511.937C863.719 503.474 862.16 497.833 859.162 495.012C856.224 492.191 850.677 490.781 842.522 490.781ZM859.342 466.655C864.859 464.134 867.617 459.153 867.617 451.711C867.617 443.669 864.949 438.268 859.612 435.507C856.614 433.947 852.116 433.166 846.12 433.166H813.919V468.815H845.31C851.547 468.815 856.224 468.095 859.342 466.655Z" fill="white"/>
<path d="M103.041 632.334H38.6399V666.453H112.036V690.309H11.5661V557.615H108.798V581.111H38.6399V609.288H103.041V632.334Z" fill="white"/>
<path d="M147.935 690.309H122.121V557.615H162.417L186.522 661.952L210.448 557.615H250.294V690.309H224.479V600.556C224.479 597.975 224.509 594.374 224.569 589.753C224.629 585.072 224.659 581.471 224.659 578.951L199.564 690.309H172.67L147.755 578.951C147.755 581.471 147.785 585.072 147.845 589.753C147.905 594.374 147.935 597.975 147.935 600.556V690.309Z" fill="white"/>
<path d="M323.611 694C304.662 694 290.181 688.839 280.167 678.516C266.735 665.853 260.019 647.608 260.019 623.782C260.019 599.476 266.735 581.231 280.167 569.048C290.181 558.725 304.662 553.564 323.611 553.564C342.56 553.564 357.041 558.725 367.055 569.048C380.427 581.231 387.113 599.476 387.113 623.782C387.113 647.608 380.427 665.853 367.055 678.516C357.041 688.839 342.56 694 323.611 694ZM349.785 658.351C356.201 650.249 359.409 638.726 359.409 623.782C359.409 608.898 356.171 597.405 349.695 589.303C343.279 581.141 334.584 577.06 323.611 577.06C312.637 577.06 303.883 581.111 297.347 589.213C290.811 597.315 287.542 608.838 287.542 623.782C287.542 638.726 290.811 650.249 297.347 658.351C303.883 666.453 312.637 670.504 323.611 670.504C334.584 670.504 343.309 666.453 349.785 658.351Z" fill="white"/>
<path d="M493.62 557.615V581.111H453.954V690.309H426.07V581.111H386.224V557.615H493.62Z" fill="white"/>
<path d="M496.689 557.615H524.212V690.309H496.689V557.615Z" fill="white"/>
<path d="M597.709 694C578.761 694 564.279 688.839 554.265 678.516C540.833 665.853 534.117 647.608 534.117 623.782C534.117 599.476 540.833 581.231 554.265 569.048C564.279 558.725 578.761 553.564 597.709 553.564C616.658 553.564 631.139 558.725 641.153 569.048C654.525 581.231 661.211 599.476 661.211 623.782C661.211 647.608 654.525 665.853 641.153 678.516C631.139 688.839 616.658 694 597.709 694ZM623.884 658.351C630.3 650.249 633.508 638.726 633.508 623.782C633.508 608.898 630.27 597.405 623.794 589.303C617.377 581.141 608.683 577.06 597.709 577.06C586.736 577.06 577.981 581.111 571.445 589.213C564.909 597.315 561.641 608.838 561.641 623.782C561.641 638.726 564.909 650.249 571.445 658.351C577.981 666.453 586.736 670.504 597.709 670.504C608.683 670.504 617.407 666.453 623.884 658.351Z" fill="white"/>
<path d="M778.602 690.309H750.898L696.751 596.055V690.309H670.936V557.615H699.989L752.787 650.249V557.615H778.602V690.309Z" fill="white"/>
<path d="M841.575 671.134C848.111 671.134 853.418 670.414 857.495 668.974C865.231 666.213 869.098 661.082 869.098 653.58C869.098 649.198 867.179 645.808 863.342 643.407C859.504 641.066 853.478 638.996 845.263 637.195L831.231 634.045C817.439 630.924 807.905 627.533 802.628 623.872C793.693 617.75 789.226 608.178 789.226 595.155C789.226 583.272 793.544 573.399 802.178 565.537C810.813 557.675 823.496 553.744 840.226 553.744C854.197 553.744 866.1 557.465 875.934 564.907C885.828 572.289 891.015 583.032 891.495 597.135H864.871C864.391 589.153 860.913 583.482 854.437 580.121C850.12 577.9 844.753 576.79 838.337 576.79C831.201 576.79 825.504 578.23 821.247 581.111C816.99 583.992 814.861 588.013 814.861 593.174C814.861 597.915 816.96 601.456 821.157 603.797C823.855 605.357 829.612 607.188 838.427 609.288L861.273 614.78C871.287 617.18 878.843 620.391 883.939 624.412C891.855 630.654 895.812 639.686 895.812 651.509C895.812 663.632 891.165 673.715 881.871 681.757C872.636 689.739 859.564 693.73 842.654 693.73C825.385 693.73 811.803 689.799 801.909 681.937C792.014 674.015 787.067 663.152 787.067 649.349H813.512C814.351 655.41 816 659.941 818.459 662.942C822.956 668.403 830.661 671.134 841.575 671.134Z" fill="white"/>
<path d="M770.406 115H902.423V247.13H770.406V115Z" fill="white"/>
<path d="M1623.89 394.988L1623.89 392.956L1621.86 392.956L1393.65 392.956L1393.65 164.781L1393.65 162.75L1391.62 162.75L1372.67 162.75L1370.64 162.75L1370.64 164.781L1370.64 392.956L1142.42 392.956L1140.39 392.956L1140.39 394.987L1140.39 414.013L1140.39 416.044L1142.42 416.044L1370.64 416.044L1370.64 644.219L1370.64 646.251L1372.67 646.251L1391.62 646.251L1393.65 646.251L1393.65 644.219L1393.65 416.044L1621.86 416.044L1623.89 416.044L1623.89 414.013L1623.89 394.988Z" fill="white" stroke="white" stroke-width="4.06303"/>
<path d="M3446.61 0.927734H3310.1V27.5309H3363.52V151.512H3393.19V27.5309H3446.61V0.927734Z" fill="white"/>
<path d="M3643.56 0.927734H3598.55L3556.51 117.881L3513.97 0.927734H3468.47V151.512H3497.16V32.5504L3540.19 151.512H3571.84L3614.87 32.5504V151.512H3643.56V0.927734Z" fill="white"/>
<path fill-rule="evenodd" clip-rule="evenodd" d="M2525.12 639.805V473.044H2126.88V639.805H1861.72V151.512H2126.88V318.273H2525.12V151.512L3171.24 151.533C3321.45 149.717 3432.98 262.334 3431.76 395.658C3432.98 528.256 3321.45 641.6 3171.24 639.783L2525.12 639.805ZM3131.34 485.026C3186.7 485.026 3218.05 444.701 3218.05 395.658C3218.05 346.252 3186.7 306.291 3131.34 306.291H2897.68V485.026H3131.34Z" fill="white"/>
<path d="M135.56 115H162.753L126.698 248H101.156L85.6911 170.221L81.1734 144.505L76.6557 170.221L61.1912 248H36.3438L0.0283203 115H28.4378L45.3792 191.155L49.0281 212.359L52.7639 191.606L67.1858 115H95.4215L110.625 191.155L114.535 212.359L118.444 191.967L135.56 115Z" fill="white"/>
<path d="M255.944 189.891H193.738V224.089H264.631V248H167.588V115H261.504V138.55H193.738V166.792H255.944V189.891Z" fill="white"/>
<path d="M299.735 134.49C299.735 143.573 297.592 150.731 293.306 155.965C289.078 161.198 283.112 164.597 275.409 166.161V156.687C281.085 154.822 284.995 151.664 287.138 147.212C288.296 144.566 288.788 141.889 288.615 139.182H274.974V115.451H299.735V134.49Z" fill="white"/>
<path d="M366.717 195.847H339.089V248H312.939V115H375.752C384.73 115.18 391.622 116.323 396.429 118.429C401.295 120.534 405.407 123.632 408.766 127.723C411.546 131.091 413.747 134.821 415.369 138.911C416.991 143.002 417.802 147.664 417.802 152.897C417.802 159.213 416.267 165.439 413.197 171.575C410.127 177.65 405.059 181.951 397.993 184.478C403.901 186.944 408.071 190.463 410.504 195.035C412.994 199.546 414.24 206.464 414.24 215.788V224.72C414.24 230.796 414.471 234.917 414.935 237.082C415.63 240.511 417.251 243.037 419.8 244.661V248H390.348C389.537 245.052 388.958 242.676 388.61 240.872C387.915 237.142 387.539 233.322 387.481 229.412L387.307 217.051C387.191 208.569 385.685 202.915 382.789 200.088C379.951 197.26 374.594 195.847 366.717 195.847ZM382.963 171.665C388.292 169.138 390.956 164.146 390.956 156.687C390.956 148.626 388.379 143.212 383.224 140.445C380.328 138.881 375.984 138.099 370.192 138.099H339.089V173.83H369.41C375.434 173.83 379.951 173.109 382.963 171.665Z" fill="white"/>
<path d="M521.284 189.891H459.078V224.089H529.972V248H432.928V115H526.844V138.55H459.078V166.792H521.284V189.891Z" fill="white"/>
</svg>
