<svg width="2497" height="1603" viewBox="0 0 2497 1603" fill="none" xmlns="http://www.w3.org/2000/svg">
<path d="M287.213 748.481C259.822 773.564 224.796 786.106 182.133 786.106C129.345 786.106 87.844 769.162 57.6316 735.275C27.4192 701.222 12.313 654.544 12.313 595.241C12.313 531.121 29.4942 481.702 63.8567 446.984C93.7371 416.752 131.752 401.635 177.9 401.635C239.653 401.635 284.806 421.901 313.358 462.433C329.128 485.191 337.595 508.031 338.757 530.955H262.063C257.083 513.347 250.692 500.058 242.89 491.088C228.946 475.141 208.279 467.167 180.888 467.167C153 467.167 131.005 478.463 114.902 501.055C98.8002 523.48 90.7491 555.291 90.7491 596.487C90.7491 637.683 99.2152 668.58 116.147 689.179C133.246 709.611 154.909 719.827 181.137 719.827C208.03 719.827 228.531 711.023 242.641 693.415C250.443 683.946 256.917 669.743 262.063 650.806H338.009C331.369 690.84 314.437 723.398 287.213 748.481Z" fill="black"/>
<path d="M537.352 631.869H458.169V775.89H383.219V408.612H563.248C588.978 409.111 608.733 412.267 622.511 418.081C636.455 423.895 648.241 432.45 657.869 443.745C665.838 453.048 672.146 463.347 676.794 474.642C681.442 485.938 683.766 498.812 683.766 513.264C683.766 530.706 679.367 547.899 670.569 564.842C661.77 581.62 647.245 593.497 626.993 600.474C643.925 607.284 655.877 617.002 662.849 629.627C669.988 642.085 673.557 661.188 673.557 686.936V711.604C673.557 728.381 674.221 739.76 675.549 745.74C677.541 755.209 682.189 762.186 689.493 766.671V775.89H605.081C602.757 767.75 601.097 761.189 600.101 756.206C598.109 745.907 597.03 735.358 596.864 724.561L596.365 690.424C596.033 667.002 591.717 651.388 583.417 643.58C575.283 635.773 559.928 631.869 537.352 631.869ZM583.915 565.091C599.188 558.115 606.824 544.327 606.824 523.729C606.824 501.47 599.437 486.52 584.662 478.878C576.362 474.559 563.912 472.4 547.312 472.4H458.169V571.072H545.071C562.335 571.072 575.283 569.078 583.915 565.091Z" fill="black"/>
<path d="M990.179 615.424H811.893V709.86H1015.08V775.89H736.943V408.612H1006.12V473.646H811.893V551.636H990.179V615.424Z" fill="black"/>
<path d="M1274.43 700.391H1139.22L1113.82 775.89H1033.65L1164.62 408.612H1251.27L1381.25 775.89H1298.09L1274.43 700.391ZM1253.02 637.102L1207.2 492.583L1159.89 637.102H1253.02Z" fill="black"/>
<path d="M1641.6 408.612V473.646H1531.79V775.89H1454.6V473.646H1344.29V408.612H1641.6Z" fill="black"/>
<path d="M1665.4 408.612H1741.59V775.89H1665.4V408.612Z" fill="black"/>
<path d="M2094.82 775.89H2018.13L1868.23 515.008V775.89H1796.76V408.612H1877.19L2023.35 665.009V408.612H2094.82V775.89Z" fill="black"/>
<path d="M2376.33 766.92C2356.08 779.378 2331.18 785.608 2301.63 785.608C2252.99 785.608 2213.15 768.747 2182.11 735.026C2149.74 701.139 2133.55 654.793 2133.55 595.989C2133.55 536.52 2149.9 488.845 2182.61 452.965C2215.31 417.084 2258.55 399.144 2312.34 399.144C2358.98 399.144 2396.42 411.021 2424.64 434.775C2453.03 458.363 2469.29 487.849 2473.44 523.231H2398C2392.19 498.148 2377.99 480.623 2355.42 470.656C2342.8 465.174 2328.77 462.433 2313.33 462.433C2283.79 462.433 2259.47 473.646 2240.38 496.071C2221.45 518.33 2211.99 551.885 2211.99 596.736C2211.99 641.919 2222.28 673.896 2242.87 692.667C2263.45 711.438 2286.86 720.823 2313.08 720.823C2338.82 720.823 2359.9 713.431 2376.33 698.647C2392.77 683.697 2402.89 664.178 2406.71 640.092H2321.8V578.796H2474.69V775.89H2423.89L2416.17 730.043C2401.4 747.485 2388.12 759.777 2376.33 766.92Z" fill="black"/>
<path d="M1767.34 881.885H1583.33V966.354H1744.43V1030.14H1583.33V1184.13H1507.13V817.35H1767.34V881.885Z" fill="black"/>
<path d="M1960.84 1194.35C1908.38 1194.35 1868.29 1180.06 1840.57 1151.49C1803.38 1116.44 1784.79 1065.94 1784.79 999.992C1784.79 932.716 1803.38 882.217 1840.57 848.496C1868.29 819.924 1908.38 805.638 1960.84 805.638C2013.29 805.638 2053.38 819.924 2081.11 848.496C2118.12 882.217 2136.63 932.716 2136.63 999.992C2136.63 1065.94 2118.12 1116.44 2081.11 1151.49C2053.38 1180.06 2013.29 1194.35 1960.84 1194.35ZM2033.3 1095.67C2051.06 1073.25 2059.94 1041.35 2059.94 999.992C2059.94 958.796 2050.98 926.985 2033.05 904.559C2015.29 881.968 1991.22 870.672 1960.84 870.672C1930.46 870.672 1906.22 881.885 1888.13 904.31C1870.03 926.735 1860.99 958.629 1860.99 999.992C1860.99 1041.35 1870.03 1073.25 1888.13 1095.67C1906.22 1118.1 1930.46 1129.31 1960.84 1129.31C1991.22 1129.31 2015.37 1118.1 2033.3 1095.67Z" fill="black"/>
<path d="M2330.88 1040.11H2251.69V1184.13H2176.74V816.851H2356.77C2382.5 817.349 2402.26 820.506 2416.04 826.32C2429.98 832.134 2441.77 840.689 2451.39 851.984C2459.36 861.287 2465.67 871.586 2470.32 882.881C2474.97 894.177 2477.29 907.051 2477.29 921.503C2477.29 938.945 2472.89 956.138 2464.09 973.081C2455.3 989.859 2440.77 1001.74 2420.52 1008.71C2437.45 1015.52 2449.4 1025.24 2456.37 1037.87C2463.51 1050.32 2467.08 1069.43 2467.08 1095.18V1119.84C2467.08 1136.62 2467.75 1148 2469.07 1153.98C2471.07 1163.45 2475.71 1170.42 2483.02 1174.91V1184.13H2398.61C2396.28 1175.99 2394.62 1169.43 2393.63 1164.44C2391.63 1154.15 2390.55 1143.6 2390.39 1132.8L2389.89 1098.66C2389.56 1075.24 2385.24 1059.63 2376.94 1051.82C2368.81 1044.01 2353.45 1040.11 2330.88 1040.11ZM2377.44 973.331C2392.71 966.354 2400.35 952.566 2400.35 931.968C2400.35 909.709 2392.96 894.759 2378.19 887.117C2369.89 882.798 2357.44 880.639 2340.84 880.639H2251.69V979.311H2338.6C2355.86 979.311 2368.81 977.317 2377.44 973.331Z" fill="black"/>
<path d="M283.727 1431.91H105.44V1526.34H308.627V1592.37H30.4902V1225.1H299.663V1290.13H105.44V1368.12H283.727V1431.91Z" fill="black"/>
<path d="M408.009 1592.37H336.545V1225.1H448.099L514.832 1513.88L581.067 1225.1H691.375V1592.37H619.911V1343.95C619.911 1336.81 619.994 1326.84 620.16 1314.05C620.326 1301.09 620.409 1291.13 620.409 1284.15L550.937 1592.37H476.485L407.511 1284.15C407.511 1291.13 407.594 1301.09 407.76 1314.05C407.926 1326.84 408.009 1336.81 408.009 1343.95V1592.37Z" fill="black"/>
<path d="M894.343 1602.59C841.886 1602.59 801.797 1588.3 774.074 1559.73C736.89 1524.68 718.298 1474.18 718.298 1408.24C718.298 1340.96 736.89 1290.46 774.074 1256.74C801.797 1228.17 841.886 1213.88 894.343 1213.88C946.8 1213.88 986.889 1228.17 1014.61 1256.74C1051.63 1290.46 1070.14 1340.96 1070.14 1408.24C1070.14 1474.18 1051.63 1524.68 1014.61 1559.73C986.889 1588.3 946.8 1602.59 894.343 1602.59ZM966.803 1503.92C984.565 1481.49 993.446 1449.6 993.446 1408.24C993.446 1367.04 984.482 1335.23 966.554 1312.8C948.792 1290.21 924.721 1278.92 894.343 1278.92C863.965 1278.92 839.728 1290.13 821.634 1312.55C803.54 1334.98 794.493 1366.87 794.493 1408.24C794.493 1449.6 803.54 1481.49 821.634 1503.92C839.728 1526.34 863.965 1537.56 894.343 1537.56C924.721 1537.56 948.875 1526.34 966.803 1503.92Z" fill="black"/>
<path d="M1364.99 1225.1V1290.13H1255.18V1592.37H1177.99V1290.13H1067.68V1225.1H1364.99Z" fill="black"/>
<path d="M1373.49 1225.1H1449.68V1592.37H1373.49V1225.1Z" fill="black"/>
<path d="M1653.15 1602.59C1600.69 1602.59 1560.6 1588.3 1532.88 1559.73C1495.69 1524.68 1477.1 1474.18 1477.1 1408.24C1477.1 1340.96 1495.69 1290.46 1532.88 1256.74C1560.6 1228.17 1600.69 1213.88 1653.15 1213.88C1705.6 1213.88 1745.69 1228.17 1773.41 1256.74C1810.43 1290.46 1828.94 1340.96 1828.94 1408.24C1828.94 1474.18 1810.43 1524.68 1773.41 1559.73C1745.69 1588.3 1705.6 1602.59 1653.15 1602.59ZM1725.61 1503.92C1743.37 1481.49 1752.25 1449.6 1752.25 1408.24C1752.25 1367.04 1743.29 1335.23 1725.36 1312.8C1707.59 1290.21 1683.52 1278.92 1653.15 1278.92C1622.77 1278.92 1598.53 1290.13 1580.44 1312.55C1562.34 1334.98 1553.3 1366.87 1553.3 1408.24C1553.3 1449.6 1562.34 1481.49 1580.44 1503.92C1598.53 1526.34 1622.77 1537.56 1653.15 1537.56C1683.52 1537.56 1707.68 1526.34 1725.61 1503.92Z" fill="black"/>
<path d="M2153.92 1592.37H2077.23L1927.33 1331.49V1592.37H1855.86V1225.1H1936.29L2082.46 1481.49V1225.1H2153.92V1592.37Z" fill="black"/>
<path d="M2328.25 1539.3C2346.35 1539.3 2361.04 1537.31 2372.33 1533.32C2393.74 1525.68 2404.45 1511.48 2404.45 1490.71C2404.45 1478.58 2399.14 1469.2 2388.51 1462.56C2377.89 1456.08 2361.21 1450.35 2338.46 1445.36L2299.62 1436.64C2261.44 1428 2235.04 1418.62 2220.44 1408.48C2195.7 1391.54 2183.33 1365.05 2183.33 1329C2183.33 1296.11 2195.29 1268.78 2219.19 1247.02C2243.09 1225.26 2278.2 1214.38 2324.52 1214.38C2363.2 1214.38 2396.15 1224.68 2423.37 1245.28C2450.76 1265.71 2465.12 1295.44 2466.45 1334.48H2392.75C2391.42 1312.39 2381.79 1296.69 2363.86 1287.39C2351.91 1281.24 2337.05 1278.17 2319.29 1278.17C2299.54 1278.17 2283.77 1282.16 2271.98 1290.13C2260.19 1298.1 2254.3 1309.23 2254.3 1323.52C2254.3 1336.64 2260.11 1346.44 2271.73 1352.92C2279.2 1357.24 2295.14 1362.31 2319.54 1368.12L2382.79 1383.32C2410.51 1389.96 2431.42 1398.85 2445.53 1409.98C2467.45 1427.26 2478.4 1452.26 2478.4 1484.98C2478.4 1518.54 2465.54 1546.44 2439.81 1568.7C2414.24 1590.79 2378.05 1601.84 2331.24 1601.84C2283.43 1601.84 2245.83 1590.96 2218.44 1569.2C2191.05 1547.27 2177.36 1517.21 2177.36 1479H2250.56C2252.89 1495.78 2257.45 1508.32 2264.26 1516.62C2276.71 1531.74 2298.04 1539.3 2328.25 1539.3Z" fill="black"/>
<path d="M2131.23 0H2496.7V365.716H2131.23V0Z" fill="black"/>
<path d="M374.491 0H449.63L350.005 367.497H279.428L236.698 152.583L224.215 81.5274L211.732 152.583L169.001 367.497H100.344L0 0H78.4991L125.311 210.426L135.393 269.016L145.715 211.672L185.565 0H263.584L305.594 210.426L316.397 269.016L327.2 212.669L374.491 0Z" fill="black"/>
<path d="M707.128 206.935H535.246V301.427H731.134V367.497H462.989V0H722.492V65.0724H535.246V143.109H707.128V206.935Z" fill="black"/>
<path d="M828.13 53.853C828.13 78.9511 822.208 98.7305 810.365 113.191C798.683 127.652 782.198 137.043 760.913 141.364V115.186C776.597 110.033 787.4 101.307 793.321 89.007C796.522 81.6937 797.882 74.2972 797.402 66.8176H759.713V1.2466H828.13V53.853Z" fill="black"/>
<path d="M1013.21 223.39H936.871V367.497H864.613V0H1038.18C1062.98 0.498639 1082.03 3.65668 1095.31 9.47414C1108.75 15.2916 1120.12 23.8516 1129.4 35.154C1137.08 44.462 1143.16 54.7672 1147.64 66.0696C1152.12 77.3721 1154.36 90.2536 1154.36 104.714C1154.36 122.167 1150.12 139.37 1141.64 156.323C1133.16 173.111 1119.15 184.995 1099.63 191.976C1115.95 198.791 1127.48 208.514 1134.2 221.146C1141.08 233.612 1144.52 252.727 1144.52 278.49V303.172C1144.52 319.96 1145.16 331.345 1146.44 337.329C1148.36 346.803 1152.84 353.784 1159.88 358.272V367.497H1078.51C1076.26 359.352 1074.66 352.787 1073.7 347.801C1071.78 337.495 1070.74 326.941 1070.58 316.137L1070.1 281.98C1069.78 258.544 1065.62 242.92 1057.62 235.108C1049.78 227.296 1034.97 223.39 1013.21 223.39ZM1058.1 156.573C1072.82 149.592 1080.19 135.796 1080.19 115.186C1080.19 92.913 1073.06 77.9539 1058.82 70.3081C1050.82 65.9865 1038.82 63.8258 1022.81 63.8258H936.871V162.556H1020.65C1037.3 162.556 1049.78 160.562 1058.1 156.573Z" fill="black"/>
<path d="M1440.3 206.935H1268.42V301.427H1464.3V367.497H1196.16V0H1455.66V65.0724H1268.42V143.109H1440.3V206.935Z" fill="black"/>
</svg>
